<mxfile host="65bd71144e">
    <diagram id="57_P-monERQ1Uuo8BiW1" name="Page-1">
        <mxGraphModel dx="1608" dy="1410" grid="1" gridSize="10" guides="1" tooltips="1" connect="1" arrows="0" fold="1" page="1" pageScale="1" pageWidth="850" pageHeight="1100" background="#ffffff" math="0" shadow="0">
            <root>
                <mxCell id="0"/>
                <mxCell id="1" parent="0"/>
                <mxCell id="32" value="Employees" style="swimlane;fontStyle=0;childLayout=stackLayout;horizontal=1;startSize=26;horizontalStack=0;resizeParent=1;resizeParentMax=0;resizeLast=0;collapsible=1;marginBottom=0;html=1;fillColor=#fff2cc;strokeColor=#000000;labelBorderColor=none;shadow=0;backgroundOutline=0;fontColor=#000000;" parent="1" vertex="1">
                    <mxGeometry x="110" y="100" width="140" height="130" as="geometry"/>
                </mxCell>
                <mxCell id="33" value="id" style="text;align=left;verticalAlign=top;spacingLeft=4;spacingRight=4;overflow=hidden;rotatable=0;points=[[0,0.5],[1,0.5]];portConstraint=eastwest;whiteSpace=wrap;html=1;fillColor=#fff2cc;strokeColor=#000000;labelBorderColor=none;shadow=0;backgroundOutline=0;fontColor=#000000;" parent="32" vertex="1">
                    <mxGeometry y="26" width="140" height="26" as="geometry"/>
                </mxCell>
                <mxCell id="34" value="firstname" style="text;align=left;verticalAlign=top;spacingLeft=4;spacingRight=4;overflow=hidden;rotatable=0;points=[[0,0.5],[1,0.5]];portConstraint=eastwest;whiteSpace=wrap;html=1;fillColor=#fff2cc;strokeColor=#000000;labelBorderColor=none;shadow=0;backgroundOutline=0;fontColor=#000000;" parent="32" vertex="1">
                    <mxGeometry y="52" width="140" height="26" as="geometry"/>
                </mxCell>
                <mxCell id="35" value="lastname" style="text;align=left;verticalAlign=top;spacingLeft=4;spacingRight=4;overflow=hidden;rotatable=0;points=[[0,0.5],[1,0.5]];portConstraint=eastwest;whiteSpace=wrap;html=1;fillColor=#fff2cc;strokeColor=#000000;labelBorderColor=none;shadow=0;backgroundOutline=0;fontColor=#000000;" parent="32" vertex="1">
                    <mxGeometry y="78" width="140" height="26" as="geometry"/>
                </mxCell>
                <mxCell id="38" value="role" style="text;align=left;verticalAlign=top;spacingLeft=4;spacingRight=4;overflow=hidden;rotatable=0;points=[[0,0.5],[1,0.5]];portConstraint=eastwest;whiteSpace=wrap;html=1;fillColor=#fff2cc;strokeColor=#000000;labelBorderColor=none;shadow=0;backgroundOutline=0;fontColor=#000000;" parent="32" vertex="1">
                    <mxGeometry y="104" width="140" height="26" as="geometry"/>
                </mxCell>
                <mxCell id="40" value="users" style="swimlane;fontStyle=0;childLayout=stackLayout;horizontal=1;startSize=26;fillColor=#fff2cc;horizontalStack=0;resizeParent=1;resizeParentMax=0;resizeLast=0;collapsible=1;marginBottom=0;html=1;strokeColor=#000000;fontColor=#000000;" parent="1" vertex="1">
                    <mxGeometry x="380" y="113" width="140" height="104" as="geometry"/>
                </mxCell>
                <mxCell id="41" value="id" style="text;strokeColor=#000000;fillColor=#fff2cc;align=left;verticalAlign=top;spacingLeft=4;spacingRight=4;overflow=hidden;rotatable=0;points=[[0,0.5],[1,0.5]];portConstraint=eastwest;whiteSpace=wrap;html=1;fontColor=#000000;" parent="40" vertex="1">
                    <mxGeometry y="26" width="140" height="26" as="geometry"/>
                </mxCell>
                <mxCell id="42" value="email" style="text;strokeColor=#000000;fillColor=#fff2cc;align=left;verticalAlign=top;spacingLeft=4;spacingRight=4;overflow=hidden;rotatable=0;points=[[0,0.5],[1,0.5]];portConstraint=eastwest;whiteSpace=wrap;html=1;fontColor=#000000;" parent="40" vertex="1">
                    <mxGeometry y="52" width="140" height="26" as="geometry"/>
                </mxCell>
                <mxCell id="43" value="password" style="text;strokeColor=#000000;fillColor=#fff2cc;align=left;verticalAlign=top;spacingLeft=4;spacingRight=4;overflow=hidden;rotatable=0;points=[[0,0.5],[1,0.5]];portConstraint=eastwest;whiteSpace=wrap;html=1;fontColor=#000000;" parent="40" vertex="1">
                    <mxGeometry y="78" width="140" height="26" as="geometry"/>
                </mxCell>
                <mxCell id="46" style="edgeStyle=none;html=1;exitX=1;exitY=0.5;exitDx=0;exitDy=0;entryX=0;entryY=0.5;entryDx=0;entryDy=0;fontColor=#000000;fillColor=#fff2cc;strokeColor=#000000;labelBorderColor=none;shadow=0;backgroundOutline=0;" parent="1" source="34" target="40" edge="1">
                    <mxGeometry relative="1" as="geometry">
                        <Array as="points">
                            <mxPoint x="280" y="165"/>
                        </Array>
                    </mxGeometry>
                </mxCell>
                <mxCell id="53" style="edgeStyle=none;html=1;exitX=0.5;exitY=0;exitDx=0;exitDy=0;fontColor=#000000;fillColor=#fff2cc;strokeColor=#000000;labelBorderColor=none;shadow=0;backgroundOutline=0;entryX=0.5;entryY=1;entryDx=0;entryDy=0;" parent="1" source="47" target="32" edge="1">
                    <mxGeometry relative="1" as="geometry">
                        <mxPoint x="180" y="256" as="targetPoint"/>
                    </mxGeometry>
                </mxCell>
                <mxCell id="47" value="Attendance" style="swimlane;fontStyle=0;childLayout=stackLayout;horizontal=1;startSize=26;horizontalStack=0;resizeParent=1;resizeParentMax=0;resizeLast=0;collapsible=1;marginBottom=0;html=1;fillColor=#fff2cc;strokeColor=#000000;labelBorderColor=none;shadow=0;backgroundOutline=0;fontColor=#000000;" parent="1" vertex="1">
                    <mxGeometry x="110" y="350" width="140" height="156" as="geometry"/>
                </mxCell>
                <mxCell id="48" value="id" style="text;align=left;verticalAlign=top;spacingLeft=4;spacingRight=4;overflow=hidden;rotatable=0;points=[[0,0.5],[1,0.5]];portConstraint=eastwest;whiteSpace=wrap;html=1;fillColor=#fff2cc;strokeColor=#000000;labelBorderColor=none;shadow=0;backgroundOutline=0;fontColor=#000000;" parent="47" vertex="1">
                    <mxGeometry y="26" width="140" height="26" as="geometry"/>
                </mxCell>
                <mxCell id="49" value="&lt;pre style=&quot;margin-top: 0px; margin-bottom: 0px; padding: var(--su12); border: 0px; font-variant-numeric: inherit; font-variant-east-asian: inherit; font-stretch: inherit; line-height: var(--lh-md); font-family: var(--ff-mono); font-optical-sizing: inherit; font-kerning: inherit; font-feature-settings: inherit; font-variation-settings: inherit; font-size: var(--fs-body1); vertical-align: baseline; box-sizing: inherit; width: auto; max-height: 600px; overflow: auto; background-color: var(--highlight-bg); border-radius: var(--br-md); --_cb-line-numbers-bg:var(--black-050); overflow-wrap: normal;&quot; class=&quot;lang-sql s-code-block&quot;&gt;&lt;font&gt;date&lt;/font&gt;&lt;/pre&gt;" style="text;align=left;verticalAlign=top;spacingLeft=4;spacingRight=4;overflow=hidden;rotatable=0;points=[[0,0.5],[1,0.5]];portConstraint=eastwest;whiteSpace=wrap;html=1;fillColor=#fff2cc;strokeColor=#000000;labelBorderColor=none;shadow=0;backgroundOutline=0;fontColor=#000000;" parent="47" vertex="1">
                    <mxGeometry y="52" width="140" height="26" as="geometry"/>
                </mxCell>
                <mxCell id="50" value="&lt;pre style=&quot;margin-top: 0px; margin-bottom: 0px; padding: var(--su12); border: 0px; font-variant-numeric: inherit; font-variant-east-asian: inherit; font-stretch: inherit; line-height: var(--lh-md); font-family: var(--ff-mono); font-optical-sizing: inherit; font-kerning: inherit; font-feature-settings: inherit; font-variation-settings: inherit; font-size: var(--fs-body1); vertical-align: baseline; box-sizing: inherit; width: auto; max-height: 600px; overflow: auto; background-color: var(--highlight-bg); border-radius: var(--br-md); --_cb-line-numbers-bg:var(--black-050); overflow-wrap: normal;&quot; class=&quot;lang-sql s-code-block&quot;&gt;&lt;font&gt;presence&lt;/font&gt;&lt;/pre&gt;" style="text;align=left;verticalAlign=top;spacingLeft=4;spacingRight=4;overflow=hidden;rotatable=0;points=[[0,0.5],[1,0.5]];portConstraint=eastwest;whiteSpace=wrap;html=1;fillColor=#fff2cc;strokeColor=#000000;labelBorderColor=none;shadow=0;backgroundOutline=0;fontColor=#000000;" parent="47" vertex="1">
                    <mxGeometry y="78" width="140" height="26" as="geometry"/>
                </mxCell>
                <mxCell id="59" value="&lt;pre style=&quot;margin-top: 0px; margin-bottom: 0px; padding: var(--su12); border: 0px; font-variant-numeric: inherit; font-variant-east-asian: inherit; font-stretch: inherit; line-height: var(--lh-md); font-family: var(--ff-mono); font-optical-sizing: inherit; font-kerning: inherit; font-feature-settings: inherit; font-variation-settings: inherit; font-size: var(--fs-body1); vertical-align: baseline; box-sizing: inherit; width: auto; max-height: 600px; overflow: auto; background-color: var(--highlight-bg); border-radius: var(--br-md); --_cb-line-numbers-bg:var(--black-050); overflow-wrap: normal;&quot; class=&quot;lang-sql s-code-block&quot;&gt;&lt;font&gt;punch_in&lt;/font&gt;&lt;/pre&gt;" style="text;align=left;verticalAlign=top;spacingLeft=4;spacingRight=4;overflow=hidden;rotatable=0;points=[[0,0.5],[1,0.5]];portConstraint=eastwest;whiteSpace=wrap;html=1;fillColor=#fff2cc;strokeColor=#000000;labelBorderColor=none;shadow=0;backgroundOutline=0;fontColor=#000000;" parent="47" vertex="1">
                    <mxGeometry y="104" width="140" height="26" as="geometry"/>
                </mxCell>
                <mxCell id="60" value="&lt;pre style=&quot;margin-top: 0px; margin-bottom: 0px; padding: var(--su12); border: 0px; font-variant-numeric: inherit; font-variant-east-asian: inherit; font-stretch: inherit; line-height: var(--lh-md); font-family: var(--ff-mono); font-optical-sizing: inherit; font-kerning: inherit; font-feature-settings: inherit; font-variation-settings: inherit; font-size: var(--fs-body1); vertical-align: baseline; box-sizing: inherit; width: auto; max-height: 600px; overflow: auto; background-color: var(--highlight-bg); border-radius: var(--br-md); --_cb-line-numbers-bg:var(--black-050); overflow-wrap: normal;&quot; class=&quot;lang-sql s-code-block&quot;&gt;&lt;font&gt;punch_out&lt;/font&gt;&lt;/pre&gt;" style="text;align=left;verticalAlign=top;spacingLeft=4;spacingRight=4;overflow=hidden;rotatable=0;points=[[0,0.5],[1,0.5]];portConstraint=eastwest;whiteSpace=wrap;html=1;fillColor=#fff2cc;strokeColor=#000000;labelBorderColor=none;shadow=0;backgroundOutline=0;fontColor=#000000;" parent="47" vertex="1">
                    <mxGeometry y="130" width="140" height="26" as="geometry"/>
                </mxCell>
                <mxCell id="61" value="ContactMessage" style="swimlane;fontStyle=0;childLayout=stackLayout;horizontal=1;startSize=26;horizontalStack=0;resizeParent=1;resizeParentMax=0;resizeLast=0;collapsible=1;marginBottom=0;html=1;fillColor=#fff2cc;strokeColor=#000000;labelBorderColor=none;shadow=0;backgroundOutline=0;fontColor=#000000;" parent="1" vertex="1">
                    <mxGeometry x="620" y="-130" width="140" height="182" as="geometry"/>
                </mxCell>
                <mxCell id="62" value="id" style="text;align=left;verticalAlign=top;spacingLeft=4;spacingRight=4;overflow=hidden;rotatable=0;points=[[0,0.5],[1,0.5]];portConstraint=eastwest;whiteSpace=wrap;html=1;fillColor=#fff2cc;strokeColor=#000000;labelBorderColor=none;shadow=0;backgroundOutline=0;fontColor=#000000;" parent="61" vertex="1">
                    <mxGeometry y="26" width="140" height="26" as="geometry"/>
                </mxCell>
                <mxCell id="63" value="firstname" style="text;align=left;verticalAlign=top;spacingLeft=4;spacingRight=4;overflow=hidden;rotatable=0;points=[[0,0.5],[1,0.5]];portConstraint=eastwest;whiteSpace=wrap;html=1;fillColor=#fff2cc;strokeColor=#000000;labelBorderColor=none;shadow=0;backgroundOutline=0;fontColor=#000000;" parent="61" vertex="1">
                    <mxGeometry y="52" width="140" height="26" as="geometry"/>
                </mxCell>
                <mxCell id="64" value="lastname" style="text;align=left;verticalAlign=top;spacingLeft=4;spacingRight=4;overflow=hidden;rotatable=0;points=[[0,0.5],[1,0.5]];portConstraint=eastwest;whiteSpace=wrap;html=1;fillColor=#fff2cc;strokeColor=#000000;labelBorderColor=none;shadow=0;backgroundOutline=0;fontColor=#000000;" parent="61" vertex="1">
                    <mxGeometry y="78" width="140" height="26" as="geometry"/>
                </mxCell>
                <mxCell id="111" value="email" style="text;align=left;verticalAlign=top;spacingLeft=4;spacingRight=4;overflow=hidden;rotatable=0;points=[[0,0.5],[1,0.5]];portConstraint=eastwest;whiteSpace=wrap;html=1;fillColor=#fff2cc;strokeColor=#000000;labelBorderColor=none;shadow=0;backgroundOutline=0;fontColor=#000000;" parent="61" vertex="1">
                    <mxGeometry y="104" width="140" height="26" as="geometry"/>
                </mxCell>
                <mxCell id="112" value="phone_number" style="text;align=left;verticalAlign=top;spacingLeft=4;spacingRight=4;overflow=hidden;rotatable=0;points=[[0,0.5],[1,0.5]];portConstraint=eastwest;whiteSpace=wrap;html=1;fillColor=#fff2cc;strokeColor=#000000;labelBorderColor=none;shadow=0;backgroundOutline=0;fontColor=#000000;" parent="61" vertex="1">
                    <mxGeometry y="130" width="140" height="26" as="geometry"/>
                </mxCell>
                <mxCell id="113" value="message" style="text;align=left;verticalAlign=top;spacingLeft=4;spacingRight=4;overflow=hidden;rotatable=0;points=[[0,0.5],[1,0.5]];portConstraint=eastwest;whiteSpace=wrap;html=1;fillColor=#fff2cc;strokeColor=#000000;labelBorderColor=none;shadow=0;backgroundOutline=0;fontColor=#000000;" parent="61" vertex="1">
                    <mxGeometry y="156" width="140" height="26" as="geometry"/>
                </mxCell>
                <mxCell id="75" value="Address" style="swimlane;fontStyle=0;childLayout=stackLayout;horizontal=1;startSize=26;horizontalStack=0;resizeParent=1;resizeParentMax=0;resizeLast=0;collapsible=1;marginBottom=0;html=1;fillColor=#fff2cc;strokeColor=#000000;labelBorderColor=none;shadow=0;backgroundOutline=0;fontColor=#000000;" parent="1" vertex="1">
                    <mxGeometry x="610" y="256" width="140" height="156" as="geometry"/>
                </mxCell>
                <mxCell id="76" value="id" style="text;align=left;verticalAlign=top;spacingLeft=4;spacingRight=4;overflow=hidden;rotatable=0;points=[[0,0.5],[1,0.5]];portConstraint=eastwest;whiteSpace=wrap;html=1;fillColor=#fff2cc;strokeColor=#000000;labelBorderColor=none;shadow=0;backgroundOutline=0;fontColor=#000000;" parent="75" vertex="1">
                    <mxGeometry y="26" width="140" height="26" as="geometry"/>
                </mxCell>
                <mxCell id="77" value="&lt;pre style=&quot;margin-top: 0px; margin-bottom: 0px; padding: var(--su12); border: 0px; font-variant-numeric: inherit; font-variant-east-asian: inherit; font-stretch: inherit; line-height: var(--lh-md); font-family: var(--ff-mono); font-optical-sizing: inherit; font-kerning: inherit; font-feature-settings: inherit; font-variation-settings: inherit; font-size: var(--fs-body1); vertical-align: baseline; box-sizing: inherit; width: auto; max-height: 600px; overflow: auto; background-color: var(--highlight-bg); border-radius: var(--br-md); --_cb-line-numbers-bg:var(--black-050); overflow-wrap: normal;&quot; class=&quot;lang-sql s-code-block&quot;&gt;&lt;font&gt;country&lt;/font&gt;&lt;/pre&gt;" style="text;align=left;verticalAlign=top;spacingLeft=4;spacingRight=4;overflow=hidden;rotatable=0;points=[[0,0.5],[1,0.5]];portConstraint=eastwest;whiteSpace=wrap;html=1;fillColor=#fff2cc;strokeColor=#000000;labelBorderColor=none;shadow=0;backgroundOutline=0;fontColor=#000000;" parent="75" vertex="1">
                    <mxGeometry y="52" width="140" height="26" as="geometry"/>
                </mxCell>
                <mxCell id="78" value="&lt;pre style=&quot;margin-top: 0px; margin-bottom: 0px; padding: var(--su12); border: 0px; font-variant-numeric: inherit; font-variant-east-asian: inherit; font-stretch: inherit; line-height: var(--lh-md); font-family: var(--ff-mono); font-optical-sizing: inherit; font-kerning: inherit; font-feature-settings: inherit; font-variation-settings: inherit; font-size: var(--fs-body1); vertical-align: baseline; box-sizing: inherit; width: auto; max-height: 600px; overflow: auto; background-color: var(--highlight-bg); border-radius: var(--br-md); --_cb-line-numbers-bg:var(--black-050); overflow-wrap: normal;&quot; class=&quot;lang-sql s-code-block&quot;&gt;&lt;font&gt;state&lt;/font&gt;&lt;/pre&gt;" style="text;align=left;verticalAlign=top;spacingLeft=4;spacingRight=4;overflow=hidden;rotatable=0;points=[[0,0.5],[1,0.5]];portConstraint=eastwest;whiteSpace=wrap;html=1;fillColor=#fff2cc;strokeColor=#000000;labelBorderColor=none;shadow=0;backgroundOutline=0;fontColor=#000000;" parent="75" vertex="1">
                    <mxGeometry y="78" width="140" height="26" as="geometry"/>
                </mxCell>
                <mxCell id="79" value="city" style="text;align=left;verticalAlign=top;spacingLeft=4;spacingRight=4;overflow=hidden;rotatable=0;points=[[0,0.5],[1,0.5]];portConstraint=eastwest;whiteSpace=wrap;html=1;fillColor=#fff2cc;strokeColor=#000000;labelBorderColor=none;shadow=0;backgroundOutline=0;fontColor=#000000;" parent="75" vertex="1">
                    <mxGeometry y="104" width="140" height="26" as="geometry"/>
                </mxCell>
                <mxCell id="81" value="street" style="text;align=left;verticalAlign=top;spacingLeft=4;spacingRight=4;overflow=hidden;rotatable=0;points=[[0,0.5],[1,0.5]];portConstraint=eastwest;whiteSpace=wrap;html=1;fillColor=#fff2cc;strokeColor=#000000;labelBorderColor=none;shadow=0;backgroundOutline=0;fontColor=#000000;" parent="75" vertex="1">
                    <mxGeometry y="130" width="140" height="26" as="geometry"/>
                </mxCell>
                <mxCell id="82" style="edgeStyle=none;html=1;fontColor=#000000;fillColor=#fff2cc;strokeColor=#000000;labelBorderColor=none;shadow=0;backgroundOutline=0;entryX=1;entryY=0.5;entryDx=0;entryDy=0;exitX=0;exitY=0.5;exitDx=0;exitDy=0;" parent="1" source="78" target="42" edge="1">
                    <mxGeometry relative="1" as="geometry">
                        <mxPoint x="620" y="141" as="sourcePoint"/>
                        <mxPoint x="530" y="188" as="targetPoint"/>
                        <Array as="points"/>
                    </mxGeometry>
                </mxCell>
                <mxCell id="83" value="Notifications" style="swimlane;fontStyle=0;childLayout=stackLayout;horizontal=1;startSize=26;horizontalStack=0;resizeParent=1;resizeParentMax=0;resizeLast=0;collapsible=1;marginBottom=0;html=1;fillColor=#fff2cc;strokeColor=#000000;labelBorderColor=none;shadow=0;backgroundOutline=0;fontColor=#000000;" parent="1" vertex="1">
                    <mxGeometry x="380" y="340" width="140" height="156" as="geometry"/>
                </mxCell>
                <mxCell id="84" value="id" style="text;align=left;verticalAlign=top;spacingLeft=4;spacingRight=4;overflow=hidden;rotatable=0;points=[[0,0.5],[1,0.5]];portConstraint=eastwest;whiteSpace=wrap;html=1;fillColor=#fff2cc;strokeColor=#000000;labelBorderColor=none;shadow=0;backgroundOutline=0;fontColor=#000000;" parent="83" vertex="1">
                    <mxGeometry y="26" width="140" height="26" as="geometry"/>
                </mxCell>
                <mxCell id="85" value="&lt;pre style=&quot;margin-top: 0px; margin-bottom: 0px; padding: var(--su12); border: 0px; font-variant-numeric: inherit; font-variant-east-asian: inherit; font-stretch: inherit; line-height: var(--lh-md); font-family: var(--ff-mono); font-optical-sizing: inherit; font-kerning: inherit; font-feature-settings: inherit; font-variation-settings: inherit; font-size: var(--fs-body1); vertical-align: baseline; box-sizing: inherit; width: auto; max-height: 600px; overflow: auto; background-color: var(--highlight-bg); border-radius: var(--br-md); --_cb-line-numbers-bg:var(--black-050); overflow-wrap: normal;&quot; class=&quot;lang-sql s-code-block&quot;&gt;&lt;font&gt;title&lt;/font&gt;&lt;/pre&gt;" style="text;align=left;verticalAlign=top;spacingLeft=4;spacingRight=4;overflow=hidden;rotatable=0;points=[[0,0.5],[1,0.5]];portConstraint=eastwest;whiteSpace=wrap;html=1;fillColor=#fff2cc;strokeColor=#000000;labelBorderColor=none;shadow=0;backgroundOutline=0;fontColor=#000000;" parent="83" vertex="1">
                    <mxGeometry y="52" width="140" height="26" as="geometry"/>
                </mxCell>
                <mxCell id="86" value="&lt;pre style=&quot;margin-top: 0px; margin-bottom: 0px; padding: var(--su12); border: 0px; font-variant-numeric: inherit; font-variant-east-asian: inherit; font-stretch: inherit; line-height: var(--lh-md); font-family: var(--ff-mono); font-optical-sizing: inherit; font-kerning: inherit; font-feature-settings: inherit; font-variation-settings: inherit; font-size: var(--fs-body1); vertical-align: baseline; box-sizing: inherit; width: auto; max-height: 600px; overflow: auto; background-color: var(--highlight-bg); border-radius: var(--br-md); --_cb-line-numbers-bg:var(--black-050); overflow-wrap: normal;&quot; class=&quot;lang-sql s-code-block&quot;&gt;&lt;font&gt;type&lt;/font&gt;&lt;/pre&gt;" style="text;align=left;verticalAlign=top;spacingLeft=4;spacingRight=4;overflow=hidden;rotatable=0;points=[[0,0.5],[1,0.5]];portConstraint=eastwest;whiteSpace=wrap;html=1;fillColor=#fff2cc;strokeColor=#000000;labelBorderColor=none;shadow=0;backgroundOutline=0;fontColor=#000000;" parent="83" vertex="1">
                    <mxGeometry y="78" width="140" height="26" as="geometry"/>
                </mxCell>
                <mxCell id="87" value="content" style="text;align=left;verticalAlign=top;spacingLeft=4;spacingRight=4;overflow=hidden;rotatable=0;points=[[0,0.5],[1,0.5]];portConstraint=eastwest;whiteSpace=wrap;html=1;fillColor=#fff2cc;strokeColor=#000000;labelBorderColor=none;shadow=0;backgroundOutline=0;fontColor=#000000;" parent="83" vertex="1">
                    <mxGeometry y="104" width="140" height="26" as="geometry"/>
                </mxCell>
                <mxCell id="88" value="displayed" style="text;align=left;verticalAlign=top;spacingLeft=4;spacingRight=4;overflow=hidden;rotatable=0;points=[[0,0.5],[1,0.5]];portConstraint=eastwest;whiteSpace=wrap;html=1;fillColor=#fff2cc;strokeColor=#000000;labelBorderColor=none;shadow=0;backgroundOutline=0;fontColor=#000000;" parent="83" vertex="1">
                    <mxGeometry y="130" width="140" height="26" as="geometry"/>
                </mxCell>
                <mxCell id="89" value="" style="endArrow=classic;html=1;entryX=0.3;entryY=0.962;entryDx=0;entryDy=0;exitX=0.25;exitY=0;exitDx=0;exitDy=0;fontStyle=0;fontColor=#090606;labelBackgroundColor=#FFFFFF;strokeColor=#000000;entryPerimeter=0;" parent="1" source="83" target="43" edge="1">
                    <mxGeometry relative="1" as="geometry">
                        <mxPoint x="450" y="310" as="sourcePoint"/>
                        <mxPoint x="610" y="310" as="targetPoint"/>
                    </mxGeometry>
                </mxCell>
                <mxCell id="90" value="from" style="edgeLabel;resizable=0;html=1;align=center;verticalAlign=middle;fontColor=#000000;labelBackgroundColor=#FFFFFF;" parent="89" connectable="0" vertex="1">
                    <mxGeometry relative="1" as="geometry">
                        <mxPoint x="-5" as="offset"/>
                    </mxGeometry>
                </mxCell>
                <mxCell id="91" value="&lt;br&gt;" style="edgeLabel;resizable=0;html=1;align=left;verticalAlign=bottom;" parent="89" connectable="0" vertex="1">
                    <mxGeometry x="-1" relative="1" as="geometry"/>
                </mxCell>
                <mxCell id="94" value="" style="endArrow=classic;html=1;entryX=0.75;entryY=1;entryDx=0;entryDy=0;fontStyle=0;fontColor=#090606;labelBackgroundColor=#FFFFFF;strokeColor=#000000;exitX=0.679;exitY=0;exitDx=0;exitDy=0;exitPerimeter=0;" parent="1" source="83" target="40" edge="1">
                    <mxGeometry relative="1" as="geometry">
                        <mxPoint x="500" y="320" as="sourcePoint"/>
                        <mxPoint x="480" y="217" as="targetPoint"/>
                    </mxGeometry>
                </mxCell>
                <mxCell id="95" value="to" style="edgeLabel;resizable=0;html=1;align=center;verticalAlign=middle;fontColor=#000000;labelBackgroundColor=#FFFFFF;" parent="94" connectable="0" vertex="1">
                    <mxGeometry relative="1" as="geometry">
                        <mxPoint x="-5" as="offset"/>
                    </mxGeometry>
                </mxCell>
                <mxCell id="96" value="&lt;br&gt;" style="edgeLabel;resizable=0;html=1;align=left;verticalAlign=bottom;" parent="94" connectable="0" vertex="1">
                    <mxGeometry x="-1" relative="1" as="geometry"/>
                </mxCell>
                <mxCell id="97" value="files" style="swimlane;fontStyle=0;childLayout=stackLayout;horizontal=1;startSize=26;horizontalStack=0;resizeParent=1;resizeParentMax=0;resizeLast=0;collapsible=1;marginBottom=0;html=1;fillColor=#fff2cc;strokeColor=#000000;labelBorderColor=none;shadow=0;backgroundOutline=0;fontColor=#000000;" parent="1" vertex="1">
                    <mxGeometry x="380" y="-90" width="140" height="130" as="geometry"/>
                </mxCell>
                <mxCell id="98" value="id" style="text;align=left;verticalAlign=top;spacingLeft=4;spacingRight=4;overflow=hidden;rotatable=0;points=[[0,0.5],[1,0.5]];portConstraint=eastwest;whiteSpace=wrap;html=1;fillColor=#fff2cc;strokeColor=#000000;labelBorderColor=none;shadow=0;backgroundOutline=0;fontColor=#000000;" parent="97" vertex="1">
                    <mxGeometry y="26" width="140" height="26" as="geometry"/>
                </mxCell>
                <mxCell id="99" value="&lt;pre style=&quot;margin-top: 0px; margin-bottom: 0px; padding: var(--su12); border: 0px; font-variant-numeric: inherit; font-variant-east-asian: inherit; font-stretch: inherit; line-height: var(--lh-md); font-family: var(--ff-mono); font-optical-sizing: inherit; font-kerning: inherit; font-feature-settings: inherit; font-variation-settings: inherit; font-size: var(--fs-body1); vertical-align: baseline; box-sizing: inherit; width: auto; max-height: 600px; overflow: auto; background-color: var(--highlight-bg); border-radius: var(--br-md); --_cb-line-numbers-bg:var(--black-050); overflow-wrap: normal;&quot; class=&quot;lang-sql s-code-block&quot;&gt;&lt;font&gt;name&lt;/font&gt;&lt;/pre&gt;" style="text;align=left;verticalAlign=top;spacingLeft=4;spacingRight=4;overflow=hidden;rotatable=0;points=[[0,0.5],[1,0.5]];portConstraint=eastwest;whiteSpace=wrap;html=1;fillColor=#fff2cc;strokeColor=#000000;labelBorderColor=none;shadow=0;backgroundOutline=0;fontColor=#000000;" parent="97" vertex="1">
                    <mxGeometry y="52" width="140" height="26" as="geometry"/>
                </mxCell>
                <mxCell id="100" value="&lt;pre style=&quot;margin-top: 0px; margin-bottom: 0px; padding: var(--su12); border: 0px; font-variant-numeric: inherit; font-variant-east-asian: inherit; font-stretch: inherit; line-height: var(--lh-md); font-family: var(--ff-mono); font-optical-sizing: inherit; font-kerning: inherit; font-feature-settings: inherit; font-variation-settings: inherit; font-size: var(--fs-body1); vertical-align: baseline; box-sizing: inherit; width: auto; max-height: 600px; overflow: auto; background-color: var(--highlight-bg); border-radius: var(--br-md); --_cb-line-numbers-bg:var(--black-050); overflow-wrap: normal;&quot; class=&quot;lang-sql s-code-block&quot;&gt;&lt;font&gt;extension&lt;/font&gt;&lt;/pre&gt;" style="text;align=left;verticalAlign=top;spacingLeft=4;spacingRight=4;overflow=hidden;rotatable=0;points=[[0,0.5],[1,0.5]];portConstraint=eastwest;whiteSpace=wrap;html=1;fillColor=#fff2cc;strokeColor=#000000;labelBorderColor=none;shadow=0;backgroundOutline=0;fontColor=#000000;" parent="97" vertex="1">
                    <mxGeometry y="78" width="140" height="26" as="geometry"/>
                </mxCell>
                <mxCell id="101" value="content" style="text;align=left;verticalAlign=top;spacingLeft=4;spacingRight=4;overflow=hidden;rotatable=0;points=[[0,0.5],[1,0.5]];portConstraint=eastwest;whiteSpace=wrap;html=1;fillColor=#fff2cc;strokeColor=#000000;labelBorderColor=none;shadow=0;backgroundOutline=0;fontColor=#000000;" parent="97" vertex="1">
                    <mxGeometry y="104" width="140" height="26" as="geometry"/>
                </mxCell>
                <mxCell id="102" value="" style="endArrow=classic;html=1;labelBackgroundColor=#FFFFFF;strokeColor=#000000;fontColor=#000000;exitX=0.5;exitY=1;exitDx=0;exitDy=0;entryX=0.5;entryY=0;entryDx=0;entryDy=0;" parent="1" source="97" target="40" edge="1">
                    <mxGeometry relative="1" as="geometry">
                        <mxPoint x="390" y="80" as="sourcePoint"/>
                        <mxPoint x="490" y="80" as="targetPoint"/>
                        <Array as="points">
                            <mxPoint x="450" y="80"/>
                        </Array>
                    </mxGeometry>
                </mxCell>
                <mxCell id="103" value="Have" style="edgeLabel;resizable=0;html=1;align=center;verticalAlign=middle;labelBackgroundColor=#FFFFFF;fontColor=#000000;" parent="102" connectable="0" vertex="1">
                    <mxGeometry relative="1" as="geometry"/>
                </mxCell>
                <mxCell id="106" value="ContactRespond" style="swimlane;fontStyle=0;childLayout=stackLayout;horizontal=1;startSize=26;horizontalStack=0;resizeParent=1;resizeParentMax=0;resizeLast=0;collapsible=1;marginBottom=0;html=1;fillColor=#fff2cc;strokeColor=#000000;labelBorderColor=none;shadow=0;backgroundOutline=0;fontColor=#000000;" parent="1" vertex="1">
                    <mxGeometry x="660" y="126" width="140" height="78" as="geometry"/>
                </mxCell>
                <mxCell id="107" value="id" style="text;align=left;verticalAlign=top;spacingLeft=4;spacingRight=4;overflow=hidden;rotatable=0;points=[[0,0.5],[1,0.5]];portConstraint=eastwest;whiteSpace=wrap;html=1;fillColor=#fff2cc;strokeColor=#000000;labelBorderColor=none;shadow=0;backgroundOutline=0;fontColor=#000000;" parent="106" vertex="1">
                    <mxGeometry y="26" width="140" height="26" as="geometry"/>
                </mxCell>
                <mxCell id="108" value="message" style="text;align=left;verticalAlign=top;spacingLeft=4;spacingRight=4;overflow=hidden;rotatable=0;points=[[0,0.5],[1,0.5]];portConstraint=eastwest;whiteSpace=wrap;html=1;fillColor=#fff2cc;strokeColor=#000000;labelBorderColor=none;shadow=0;backgroundOutline=0;fontColor=#000000;" parent="106" vertex="1">
                    <mxGeometry y="52" width="140" height="26" as="geometry"/>
                </mxCell>
                <mxCell id="110" style="edgeStyle=none;html=1;fontColor=#000000;fillColor=#fff2cc;strokeColor=#000000;labelBorderColor=none;shadow=0;backgroundOutline=0;entryX=0.5;entryY=1;entryDx=0;entryDy=0;exitX=0.25;exitY=0;exitDx=0;exitDy=0;" parent="1" source="106" target="61" edge="1">
                    <mxGeometry relative="1" as="geometry">
                        <mxPoint x="620" y="141" as="sourcePoint"/>
                        <mxPoint x="530" y="188" as="targetPoint"/>
                        <Array as="points"/>
                    </mxGeometry>
                </mxCell>
                <mxCell id="116" style="edgeStyle=none;html=1;fontColor=#000000;fillColor=#fff2cc;strokeColor=#000000;labelBorderColor=none;shadow=0;backgroundOutline=0;entryX=0;entryY=0.5;entryDx=0;entryDy=0;exitX=1;exitY=0.5;exitDx=0;exitDy=0;" parent="1" source="40" target="107" edge="1">
                    <mxGeometry relative="1" as="geometry">
                        <mxPoint x="840" y="49" as="sourcePoint"/>
                        <mxPoint x="730" y="-34.5" as="targetPoint"/>
                        <Array as="points"/>
                    </mxGeometry>
                </mxCell>
                <mxCell id="117" style="edgeStyle=none;html=1;exitX=0.25;exitY=0;exitDx=0;exitDy=0;entryX=0.286;entryY=0.154;entryDx=0;entryDy=0;entryPerimeter=0;" edge="1" parent="1" source="97" target="97">
                    <mxGeometry relative="1" as="geometry"/>
                </mxCell>
                <mxCell id="118" value="Post" style="swimlane;fontStyle=0;childLayout=stackLayout;horizontal=1;startSize=30;horizontalStack=0;resizeParent=1;resizeParentMax=0;resizeLast=0;collapsible=1;marginBottom=0;html=1;fillColor=#fff2cc;strokeColor=#000000;labelBorderColor=none;shadow=0;backgroundOutline=0;fontColor=#000000;" vertex="1" parent="1">
                    <mxGeometry x="160" y="-110" width="140" height="134" as="geometry"/>
                </mxCell>
                <mxCell id="119" value="id" style="text;align=left;verticalAlign=top;spacingLeft=4;spacingRight=4;overflow=hidden;rotatable=0;points=[[0,0.5],[1,0.5]];portConstraint=eastwest;whiteSpace=wrap;html=1;fillColor=#fff2cc;strokeColor=#000000;labelBorderColor=none;shadow=0;backgroundOutline=0;fontColor=#000000;" vertex="1" parent="118">
                    <mxGeometry y="30" width="140" height="26" as="geometry"/>
                </mxCell>
                <mxCell id="120" value="&lt;pre style=&quot;margin-top: 0px; margin-bottom: 0px; padding: var(--su12); border: 0px; font-variant-numeric: inherit; font-variant-east-asian: inherit; font-stretch: inherit; line-height: var(--lh-md); font-family: var(--ff-mono); font-optical-sizing: inherit; font-kerning: inherit; font-feature-settings: inherit; font-variation-settings: inherit; font-size: var(--fs-body1); vertical-align: baseline; box-sizing: inherit; width: auto; max-height: 600px; overflow: auto; background-color: var(--highlight-bg); border-radius: var(--br-md); --_cb-line-numbers-bg:var(--black-050); overflow-wrap: normal;&quot; class=&quot;lang-sql s-code-block&quot;&gt;&lt;font&gt;title&lt;/font&gt;&lt;/pre&gt;" style="text;align=left;verticalAlign=top;spacingLeft=4;spacingRight=4;overflow=hidden;rotatable=0;points=[[0,0.5],[1,0.5]];portConstraint=eastwest;whiteSpace=wrap;html=1;fillColor=#fff2cc;strokeColor=#000000;labelBorderColor=none;shadow=0;backgroundOutline=0;fontColor=#000000;" vertex="1" parent="118">
                    <mxGeometry y="56" width="140" height="26" as="geometry"/>
                </mxCell>
                <mxCell id="121" value="&lt;pre style=&quot;margin-top: 0px; margin-bottom: 0px; padding: var(--su12); border: 0px; font-variant-numeric: inherit; font-variant-east-asian: inherit; font-stretch: inherit; line-height: var(--lh-md); font-family: var(--ff-mono); font-optical-sizing: inherit; font-kerning: inherit; font-feature-settings: inherit; font-variation-settings: inherit; font-size: var(--fs-body1); vertical-align: baseline; box-sizing: inherit; width: auto; max-height: 600px; overflow: auto; background-color: var(--highlight-bg); border-radius: var(--br-md); --_cb-line-numbers-bg:var(--black-050); overflow-wrap: normal;&quot; class=&quot;lang-sql s-code-block&quot;&gt;&lt;font&gt;summary&lt;/font&gt;&lt;/pre&gt;" style="text;align=left;verticalAlign=top;spacingLeft=4;spacingRight=4;overflow=hidden;rotatable=0;points=[[0,0.5],[1,0.5]];portConstraint=eastwest;whiteSpace=wrap;html=1;fillColor=#fff2cc;strokeColor=#000000;labelBorderColor=none;shadow=0;backgroundOutline=0;fontColor=#000000;" vertex="1" parent="118">
                    <mxGeometry y="82" width="140" height="26" as="geometry"/>
                </mxCell>
                <mxCell id="122" value="details" style="text;align=left;verticalAlign=top;spacingLeft=4;spacingRight=4;overflow=hidden;rotatable=0;points=[[0,0.5],[1,0.5]];portConstraint=eastwest;whiteSpace=wrap;html=1;fillColor=#fff2cc;strokeColor=#000000;labelBorderColor=none;shadow=0;backgroundOutline=0;fontColor=#000000;" vertex="1" parent="118">
                    <mxGeometry y="108" width="140" height="26" as="geometry"/>
                </mxCell>
                <mxCell id="123" style="edgeStyle=none;html=1;entryX=0.027;entryY=1.305;entryDx=0;entryDy=0;fontColor=#000000;fillColor=#fff2cc;strokeColor=#000000;labelBorderColor=none;shadow=0;backgroundOutline=0;entryPerimeter=0;" edge="1" parent="1" source="122" target="41">
                    <mxGeometry relative="1" as="geometry">
                        <Array as="points"/>
                        <mxPoint x="260" y="175" as="sourcePoint"/>
                        <mxPoint x="390" y="175" as="targetPoint"/>
                    </mxGeometry>
                </mxCell>
                <mxCell id="124" style="edgeStyle=none;html=1;fontColor=#000000;fillColor=#fff2cc;strokeColor=#000000;labelBorderColor=none;shadow=0;backgroundOutline=0;exitX=0;exitY=0.5;exitDx=0;exitDy=0;entryX=1;entryY=0.5;entryDx=0;entryDy=0;" edge="1" parent="1" source="119" target="131">
                    <mxGeometry relative="1" as="geometry">
                        <Array as="points"/>
                        <mxPoint x="252.34570493423075" y="34" as="sourcePoint"/>
                        <mxPoint x="40" y="-50" as="targetPoint"/>
                    </mxGeometry>
                </mxCell>
                <mxCell id="130" value="images" style="swimlane;fontStyle=0;childLayout=stackLayout;horizontal=1;startSize=26;horizontalStack=0;resizeParent=1;resizeParentMax=0;resizeLast=0;collapsible=1;marginBottom=0;html=1;fillColor=#fff2cc;strokeColor=#000000;labelBorderColor=none;shadow=0;backgroundOutline=0;fontColor=#000000;" vertex="1" parent="1">
                    <mxGeometry x="-40" y="-106" width="140" height="130" as="geometry"/>
                </mxCell>
                <mxCell id="131" value="id" style="text;align=left;verticalAlign=top;spacingLeft=4;spacingRight=4;overflow=hidden;rotatable=0;points=[[0,0.5],[1,0.5]];portConstraint=eastwest;whiteSpace=wrap;html=1;fillColor=#fff2cc;strokeColor=#000000;labelBorderColor=none;shadow=0;backgroundOutline=0;fontColor=#000000;" vertex="1" parent="130">
                    <mxGeometry y="26" width="140" height="26" as="geometry"/>
                </mxCell>
                <mxCell id="132" value="&lt;pre style=&quot;margin-top: 0px; margin-bottom: 0px; padding: var(--su12); border: 0px; font-variant-numeric: inherit; font-variant-east-asian: inherit; font-stretch: inherit; line-height: var(--lh-md); font-family: var(--ff-mono); font-optical-sizing: inherit; font-kerning: inherit; font-feature-settings: inherit; font-variation-settings: inherit; font-size: var(--fs-body1); vertical-align: baseline; box-sizing: inherit; width: auto; max-height: 600px; overflow: auto; background-color: var(--highlight-bg); border-radius: var(--br-md); --_cb-line-numbers-bg:var(--black-050); overflow-wrap: normal;&quot; class=&quot;lang-sql s-code-block&quot;&gt;&lt;font&gt;name&lt;/font&gt;&lt;/pre&gt;" style="text;align=left;verticalAlign=top;spacingLeft=4;spacingRight=4;overflow=hidden;rotatable=0;points=[[0,0.5],[1,0.5]];portConstraint=eastwest;whiteSpace=wrap;html=1;fillColor=#fff2cc;strokeColor=#000000;labelBorderColor=none;shadow=0;backgroundOutline=0;fontColor=#000000;" vertex="1" parent="130">
                    <mxGeometry y="52" width="140" height="26" as="geometry"/>
                </mxCell>
                <mxCell id="133" value="&lt;pre style=&quot;margin-top: 0px; margin-bottom: 0px; padding: var(--su12); border: 0px; font-variant-numeric: inherit; font-variant-east-asian: inherit; font-stretch: inherit; line-height: var(--lh-md); font-family: var(--ff-mono); font-optical-sizing: inherit; font-kerning: inherit; font-feature-settings: inherit; font-variation-settings: inherit; font-size: var(--fs-body1); vertical-align: baseline; box-sizing: inherit; width: auto; max-height: 600px; overflow: auto; background-color: var(--highlight-bg); border-radius: var(--br-md); --_cb-line-numbers-bg:var(--black-050); overflow-wrap: normal;&quot; class=&quot;lang-sql s-code-block&quot;&gt;&lt;font&gt;extension&lt;/font&gt;&lt;/pre&gt;" style="text;align=left;verticalAlign=top;spacingLeft=4;spacingRight=4;overflow=hidden;rotatable=0;points=[[0,0.5],[1,0.5]];portConstraint=eastwest;whiteSpace=wrap;html=1;fillColor=#fff2cc;strokeColor=#000000;labelBorderColor=none;shadow=0;backgroundOutline=0;fontColor=#000000;" vertex="1" parent="130">
                    <mxGeometry y="78" width="140" height="26" as="geometry"/>
                </mxCell>
                <mxCell id="134" value="content" style="text;align=left;verticalAlign=top;spacingLeft=4;spacingRight=4;overflow=hidden;rotatable=0;points=[[0,0.5],[1,0.5]];portConstraint=eastwest;whiteSpace=wrap;html=1;fillColor=#fff2cc;strokeColor=#000000;labelBorderColor=none;shadow=0;backgroundOutline=0;fontColor=#000000;" vertex="1" parent="130">
                    <mxGeometry y="104" width="140" height="26" as="geometry"/>
                </mxCell>
                <mxCell id="135" style="edgeStyle=none;html=1;exitX=0.75;exitY=0;exitDx=0;exitDy=0;entryX=0.677;entryY=0.023;entryDx=0;entryDy=0;entryPerimeter=0;" edge="1" parent="1" source="106" target="106">
                    <mxGeometry relative="1" as="geometry"/>
                </mxCell>
            </root>
        </mxGraphModel>
    </diagram>
</mxfile>